<?xml version="1.0" encoding="UTF-8"?><!-- Generator: Adobe Illustrator 23.0.0, SVG Export Plug-In . SVG Version: 6.00 Build 0)  --><svg xmlns="http://www.w3.org/2000/svg" enable-background="new 0 0 350 250" id="Layer_1" version="1.1" viewBox="0 0 350 250" x="0px" xml:space="preserve" y="0px">
<g fill="inherit" id="change1_1">
	<path d="m348 15.3l-166.3 166.4c-2.3 2.3-5.5 3.6-8.8 3.6s-6.5-1.3-8.8-3.6l-162.9-162.8c-0.5 2-1.2 3.9-1.2 6.1v200c0 13.8 11.2 25 25 25h300c13.8 0 25-11.2 25-25v-200c0-3.4-0.7-6.7-2-9.7z" fill="inherit"/>
	<path d="m327.5 0.5c-0.9-0.1-1.6-0.5-2.5-0.5h-300c-2.2 0-4.1 0.7-6.1 1.2l153.9 154 154.7-154.7z" fill="inherit"/>
</g>
</svg>