<?xml version="1.0" encoding="UTF-8"?><svg xmlns="http://www.w3.org/2000/svg" xmlns:xlink="http://www.w3.org/1999/xlink" height="36.0" preserveAspectRatio="xMidYMid meet" version="1.0" viewBox="6.0 6.0 36.0 36.0" width="36.0" zoomAndPan="magnify"><g id="change1_1"><path d="M13.25 21.59c2.88 5.66 7.51 10.29 13.18 13.17l4.4-4.41c.55-.55 1.34-.71 2.03-.49 2.24.74 4.65 1.14 7.14 1.14 1.11 0 2 .89 2 2v7c0 1.11-.89 2-2 2-18.78 0-34-15.22-34-34 0-1.11.9-2 2-2h7c1.11 0 2 .89 2 2 0 2.49.4 4.9 1.14 7.14.22.69.06 1.48-.49 2.03l-4.4 4.42z" fill="inherit"/></g></svg>